<svg version="1.1" xmlns="http://www.w3.org/2000/svg" viewBox="0 0 500 459">
<path d="M0 0 C1.16088135 0.32145996 1.16088135 0.32145996 2.34521484 0.64941406 C24.55248446 6.978555 44.7952925 18.68520355 62 34 C66.12431781 31.32773491 69.93032129 28.47722583 73.75 25.375 C104.48634874 1.35438206 144.32075259 -7.04609762 182.5625 -2.75390625 C196.97216762 -0.90591316 210.79618488 2.95539632 224 9 C224.97163086 9.43868408 224.97163086 9.43868408 225.96289062 9.88623047 C241.43603437 16.94631949 254.33307258 26.75218893 267 38 C267.98033203 38.87011719 267.98033203 38.87011719 268.98046875 39.7578125 C288.14283521 57.87330383 300.92383061 82.89335644 308 108 C308.21317871 108.74830078 308.42635742 109.49660156 308.64599609 110.26757812 C318.70506231 147.50447034 311.87425644 189.80254112 293 223 C286.55062662 234.08132784 279.03532998 244.32676079 269.76794434 253.23170471 C268.06723727 254.93274938 266.51711493 256.69229213 264.96289062 258.52709961 C260.29761971 263.8907685 255.25611947 268.86818029 250.21875 273.87890625 C249.14512119 274.95061197 248.07172273 276.02254848 246.99853516 277.09469604 C244.70122402 279.38886491 242.40237339 281.68147551 240.10229492 283.97286987 C236.45929461 287.60225782 232.82019199 291.23553741 229.18164062 294.86938477 C220.8016242 303.23739881 212.41658585 311.60037477 204.03149414 319.96330261 C196.34143888 327.63313532 188.65246906 335.30404802 180.96755219 342.97902966 C177.3564704 346.58515384 173.74297062 350.18883151 170.12754822 353.79060364 C167.87272878 356.03792116 165.62002135 358.28734689 163.36785889 360.53732681 C162.32997265 361.57335398 161.29122893 362.60852301 160.25152588 363.6427269 C155.19630496 368.67206772 150.26630241 373.73262591 145.6235199 379.14574242 C142.81511059 382.35328811 139.80596833 385.3581526 136.79882812 388.37817383 C136.11654648 389.06702667 135.43426483 389.75587952 134.73130798 390.46560669 C132.50081649 392.71561011 130.26649884 394.96175443 128.03125 397.20703125 C127.26309464 397.97926214 126.49493927 398.75149303 125.70350647 399.54712486 C121.64595088 403.6254353 117.58520283 407.70053687 113.52197266 411.77319336 C109.33394508 415.97233247 105.15773519 420.18302743 100.9839859 424.39635181 C97.76153652 427.64493894 94.53023951 430.88461529 91.29649353 434.12195396 C89.75260035 435.67071131 88.21208099 437.22283968 86.67506409 438.7784214 C84.52642303 440.95141753 82.36548846 443.11143057 80.20117188 445.26879883 C79.57343369 445.90934708 78.9456955 446.54989532 78.29893494 447.20985413 C73.526852 451.92642385 69.34423184 454.64168945 62.5 455.375 C53.93370711 454.4571829 49.42378906 449.99323026 43.60546875 444.07543945 C42.79639069 443.26855179 41.98731262 442.46166412 41.15371704 441.63032532 C38.48858199 438.9674966 35.8379957 436.29067547 33.1875 433.61328125 C31.3317769 431.75263141 29.47523771 429.89279519 27.61791992 428.03373718 C23.7278651 424.13724496 19.84527062 420.23345003 15.96777344 416.32446289 C11.01038204 411.32686136 6.04167296 406.34068035 1.06895447 401.35833454 C-3.68710307 396.59303973 -8.43745214 391.82206584 -13.1875 387.05078125 C-14.08836334 386.14652216 -14.98922668 385.24226307 -15.91738892 384.31060219 C-18.48276958 381.73356581 -21.04467429 379.15312601 -23.60546875 376.5715332 C-24.35476654 375.81954651 -25.10406433 375.06755981 -25.87606812 374.29278564 C-29.14867831 370.98702145 -32.33784222 367.65715374 -35.36804199 364.1269989 C-39.82497676 358.96648418 -44.67383516 354.20220732 -49.50585938 349.39648438 C-50.54993199 348.35433502 -51.59377414 347.31195474 -52.6374054 346.2693634 C-54.87087347 344.03903677 -57.10588054 341.81026845 -59.34211731 339.5827179 C-62.88430497 336.05414698 -66.42259093 332.52168058 -69.96032715 328.98864746 C-77.47058212 321.48945384 -84.98506516 313.99450349 -92.5 306.5 C-100.61531007 298.40675357 -108.72987187 290.31276521 -116.83954668 282.21387148 C-120.35027334 278.70810111 -123.86341721 275.20477734 -127.37848663 271.70336151 C-129.57103034 269.51832195 -131.76145997 267.33117223 -133.95134544 265.14346886 C-134.96020535 264.13646735 -135.96992236 263.13032362 -136.98060036 262.12514687 C-168.24324284 231.02720569 -188.29838042 193.93694244 -188.4387207 149.06253052 C-188.43831787 148.29939545 -188.43791504 147.53626038 -188.4375 146.75 C-188.43790283 145.9634201 -188.43830566 145.17684021 -188.4387207 144.36642456 C-188.31639089 102.66513891 -171.54942602 66.1798648 -142.63671875 36.48828125 C-138.96734192 32.86710641 -135.03998848 29.67796631 -130.9375 26.5625 C-130.19580566 25.99901855 -129.45411133 25.43553711 -128.68994141 24.85498047 C-113.61919164 13.59952868 -96.15220173 4.98295734 -78 0 C-77.29858887 -0.19754883 -76.59717773 -0.39509766 -75.87451172 -0.59863281 C-52.24977841 -6.942167 -23.50550927 -6.66369778 0 0 Z " fill="#00247D" transform="translate(188,4)"/>
<path d="M0 0 C1.16088135 0.32145996 1.16088135 0.32145996 2.34521484 0.64941406 C24.55248446 6.978555 44.7952925 18.68520355 62 34 C66.12431781 31.32773491 69.93032129 28.47722583 73.75 25.375 C104.48634874 1.35438206 144.32075259 -7.04609762 182.5625 -2.75390625 C196.97216762 -0.90591316 210.79618488 2.95539632 224 9 C224.97163086 9.43868408 224.97163086 9.43868408 225.96289062 9.88623047 C241.43603437 16.94631949 254.33307258 26.75218893 267 38 C267.98033203 38.87011719 267.98033203 38.87011719 268.98046875 39.7578125 C290.71668463 60.30653915 304.40700347 89.43712488 310.375 118.375 C310.54281982 119.13893066 310.71063965 119.90286133 310.88354492 120.68994141 C312.692004 130.26804036 312 138.89165149 312 149 C147 149 -18 149 -188 149 C-188 124.49418379 -188 124.49418379 -186 115.5 C-185.77997314 114.46375488 -185.55994629 113.42750977 -185.33325195 112.35986328 C-177.78835283 78.86961931 -158.37664107 47.40002828 -130.9375 26.5625 C-130.19580566 25.99901855 -129.45411133 25.43553711 -128.68994141 24.85498047 C-113.61919164 13.59952868 -96.15220173 4.98295734 -78 0 C-77.29858887 -0.19754883 -76.59717773 -0.39509766 -75.87451172 -0.59863281 C-52.24977841 -6.942167 -23.50550927 -6.66369778 0 0 Z " fill="#FFCC00" transform="translate(188,4)"/>
<path d="M0 0 C104.61 0 209.22 0 317 0 C312.95932588 4.7141198 308.94680565 9.19094726 304.55493164 13.54272461 C303.94107101 14.15512497 303.32721039 14.76752533 302.69474792 15.39848328 C301.37329716 16.71615487 300.05069337 18.03267098 298.72703743 19.34812737 C296.62611 21.43618139 294.52841835 23.52743916 292.4315033 25.61952209 C287.22420522 30.81351653 282.01147221 36.00204533 276.79888916 41.19073486 C272.38700259 45.58281311 267.97722201 49.97698587 263.570158 54.37390327 C261.51449344 56.42313744 259.45581473 58.46930926 257.39698792 60.5153656 C256.12266316 61.78605386 254.84848082 63.05688497 253.57446289 64.32788086 C252.72868179 65.16591248 252.72868179 65.16591248 251.86581421 66.02087402 C248.97577718 68.91053338 246.21404551 71.86518764 243.53916931 74.95587158 C240.10745762 78.91992463 236.49736382 82.66379553 232.79882812 86.37817383 C232.11654648 87.06702667 231.43426483 87.75587952 230.73130798 88.46560669 C228.50081649 90.71561011 226.26649884 92.96175443 224.03125 95.20703125 C223.26309464 95.97926214 222.49493927 96.75149303 221.70350647 97.54712486 C217.64595088 101.6254353 213.58520283 105.70053687 209.52197266 109.77319336 C205.33394508 113.97233247 201.15773519 118.18302743 196.9839859 122.39635181 C193.76153652 125.64493894 190.53023951 128.88461529 187.29649353 132.12195396 C185.75260035 133.67071131 184.21208099 135.22283968 182.67506409 136.7784214 C180.52642303 138.95141753 178.36548846 141.11143057 176.20117188 143.26879883 C175.57343369 143.90934708 174.9456955 144.54989532 174.29893494 145.20985413 C169.526852 149.92642385 165.34423184 152.64168945 158.5 153.375 C149.93370711 152.4571829 145.42378906 147.99323026 139.60546875 142.07543945 C138.79639069 141.26855179 137.98731262 140.46166412 137.15371704 139.63032532 C134.48858199 136.9674966 131.8379957 134.29067547 129.1875 131.61328125 C127.3317769 129.75263141 125.47523771 127.89279519 123.61791992 126.03373718 C119.7278651 122.13724496 115.84527062 118.23345003 111.96777344 114.32446289 C107.01038204 109.32686136 102.04167296 104.34068035 97.06895447 99.35833454 C92.31289693 94.59303973 87.56254786 89.82206584 82.8125 85.05078125 C81.91163666 84.14652216 81.01077332 83.24226307 80.08261108 82.31060219 C77.51723042 79.73356581 74.95532571 77.15312601 72.39453125 74.5715332 C71.64523346 73.81954651 70.89593567 73.06755981 70.12393188 72.29278564 C66.13924949 68.26773542 62.33640246 64.14593548 58.63587761 59.85893345 C56.19295833 57.08291626 53.60008943 54.47570567 50.97290039 51.87524414 C50.41592468 51.3197287 49.85894897 50.76421326 49.28509521 50.19186401 C48.09242998 49.0029646 46.89861264 47.81521997 45.703722 46.62855721 C43.81465939 44.75238454 41.92884971 42.8729946 40.04380798 40.99278259 C36.05286043 37.0131837 32.05795576 33.03757201 28.0625 29.0625 C23.40646154 24.4300568 18.75205575 19.79599691 14.10180473 15.15774345 C12.24022716 13.30266581 10.3756757 11.45061239 8.51100159 9.59864807 C7.38096771 8.47224319 6.25107202 7.34569966 5.12133789 6.21899414 C4.59934311 5.70216568 4.07734833 5.18533722 3.53953552 4.65284729 C2.34056629 3.45405809 1.16717304 2.22976822 0 1 C0 0.67 0 0.34 0 0 Z " fill="#CF142B" transform="translate(92,306)"/>
<path d="M0 0 C0.66 0 1.32 0 2 0 C3.65 3.3 5.3 6.6 7 10 C11.62 9.67 16.24 9.34 21 9 C15.25 15.75 15.25 15.75 13 18 C13.19590742 21.42837989 14.39488588 23.80397647 16.125 26.6875 C17.053125 28.3271875 17.053125 28.3271875 18 30 C17.67 30.66 17.34 31.32 17 32 C16.32453125 31.61585938 15.6490625 31.23171875 14.953125 30.8359375 C14.06109375 30.35382813 13.1690625 29.87171875 12.25 29.375 C11.36828125 28.88773438 10.4865625 28.40046875 9.578125 27.8984375 C7.08887293 26.7435645 7.08887293 26.7435645 4.90625 27.65625 C2.91860949 29.05737364 1.07168656 30.51350804 -0.75 32.125 C-1.8225 33.07375 -2.895 34.0225 -4 35 C-3.67 30.38 -3.34 25.76 -3 21 C-4.423125 20.566875 -5.84625 20.13375 -7.3125 19.6875 C-10.68185532 18.66204403 -12.68118495 17.67901932 -15 15 C-13.60582227 14.65980848 -12.20955342 14.32818221 -10.8125 14 C-9.64654297 13.7215625 -9.64654297 13.7215625 -8.45703125 13.4375 C-6 13 -6 13 -1 13 C-0.67 8.71 -0.34 4.42 0 0 Z " fill="#F1F3F8" transform="translate(222,167)"/>
<path d="M0 0 C0.66 0.33 1.32 0.66 2 1 C1.01 5.29 0.02 9.58 -1 14 C0.98 14.66 2.96 15.32 5 16 C7.875 17.5 7.875 17.5 10 19 C10 19.66 10 20.32 10 21 C5.71 21.66 1.42 22.32 -3 23 C-3.66 26.96 -4.32 30.92 -5 35 C-5.66 35 -6.32 35 -7 35 C-8.65 31.37 -10.3 27.74 -12 24 C-16.29 24 -20.58 24 -25 24 C-19.375 17.125 -19.375 17.125 -16 16 C-16.27714844 15.32453125 -16.55429687 14.6490625 -16.83984375 13.953125 C-17.20207031 13.06109375 -17.56429688 12.1690625 -17.9375 11.25 C-18.29714844 10.36828125 -18.65679687 9.4865625 -19.02734375 8.578125 C-19.85356576 6.38813896 -20.49369943 4.28101729 -21 2 C-18.25164679 3.02081691 -15.93984267 4.0406062 -13.5 5.6875 C-11.11063246 7.17683818 -11.11063246 7.17683818 -8.5625 7.0625 C-4.78885169 5.49781655 -2.74944288 3.00520501 0 0 Z " fill="#F1F3F8" transform="translate(327,186)"/>
<path d="M0 0 C2 1 2 1 2.8515625 3.50390625 C3.56770833 6.3359375 4.28385417 9.16796875 5 12 C9.62 12 14.24 12 19 12 C13.35475578 17.80205656 13.35475578 17.80205656 10 20 C9.34 20 8.68 20 8 20 C8.28875 20.68707031 8.5775 21.37414062 8.875 22.08203125 C9.431875 23.43361328 9.431875 23.43361328 10 24.8125 C10.37125 25.70582031 10.7425 26.59914063 11.125 27.51953125 C12 30 12 30 12 33 C9.29320616 32.02254667 7.21365265 31.18026942 5 29.3125 C3.0677656 27.78282349 3.0677656 27.78282349 0.625 28 C-2.93958276 29.35793629 -5.11934063 31.50342855 -8 34 C-8.66 34 -9.32 34 -10 34 C-9.01 29.71 -8.02 25.42 -7 21 C-8.65 19.865625 -10.3 18.73125 -12 17.5625 C-13.68635585 16.40313035 -15.35863362 15.22223175 -17 14 C-17 13.67 -17 13.34 -17 13 C-12.38 13 -7.76 13 -3 13 C-2.87625 11.96875 -2.7525 10.9375 -2.625 9.875 C-2.06110186 6.37883154 -1.21317941 3.31602373 0 0 Z " fill="#F2F4F8" transform="translate(378,255)"/>
<path d="M0 0 C3 3 6 6 9 9 C9.60328125 8.79503906 10.2065625 8.59007812 10.828125 8.37890625 C11.62734375 8.10949219 12.4265625 7.84007812 13.25 7.5625 C14.03890625 7.29566406 14.8278125 7.02882812 15.640625 6.75390625 C17.74821988 6.08045292 19.84753973 5.50849405 22 5 C20.54955729 9.10958767 18.48889248 12.43258745 16 16 C17.40976705 19.03852705 19.08870228 21.5939595 21.125 24.25 C21.66382813 24.95640625 22.20265625 25.6628125 22.7578125 26.390625 C23.16773438 26.92171875 23.57765625 27.4528125 24 28 C23.40832031 27.855625 22.81664062 27.71125 22.20703125 27.5625 C21.02173828 27.2840625 21.02173828 27.2840625 19.8125 27 C19.03519531 26.814375 18.25789063 26.62875 17.45703125 26.4375 C14.79492566 25.96348438 12.68837499 25.61532195 10 26 C8.13080433 27.95264271 8.13080433 27.95264271 6.75 30.5 C5.84692784 32.00822361 4.93381908 33.51061768 4 35 C3.67 35 3.34 35 3 35 C2.67 30.71 2.34 26.42 2 22 C-2.29 21.34 -6.58 20.68 -11 20 C-11 19.34 -11 18.68 -11 18 C-9.3767313 17.3291288 -7.75132422 16.66342971 -6.125 16 C-5.22007812 15.62875 -4.31515625 15.2575 -3.3828125 14.875 C-1 14 -1 14 1 14 C0.67 9.38 0.34 4.76 0 0 Z " fill="#F3F5F9" transform="translate(348,215)"/>
<path d="M0 0 C0.66 0 1.32 0 2 0 C2.50512244 1.60256108 3.00391627 3.20711792 3.5 4.8125 C3.7784375 5.70582031 4.056875 6.59914063 4.34375 7.51953125 C5 10 5 10 5 13 C9.62 13 14.24 13 19 13 C15.72724974 16.27275026 12.85411644 18.54738045 9 21 C9.66 25.29 10.32 29.58 11 34 C4.25 30.25 4.25 30.25 2 28 C-2.94028892 28.14115111 -6.2627712 31.0812997 -10 34 C-11.25955231 30.22134307 -10.48087189 28.96588214 -9.0625 25.3125 C-8.68222656 24.31863281 -8.30195312 23.32476562 -7.91015625 22.30078125 C-7.60980469 21.54152344 -7.30945313 20.78226562 -7 20 C-7.60328125 19.72414063 -8.2065625 19.44828125 -8.828125 19.1640625 C-11.75348846 17.59615187 -13.73096514 15.39509236 -16 13 C-10.06 12.505 -10.06 12.505 -4 12 C-2.68 8.04 -1.36 4.08 0 0 Z " fill="#F3F5F9" transform="translate(120,255)"/>
<path d="M0 0 C0.66 0 1.32 0 2 0 C1.67 4.62 1.34 9.24 1 14 C3.475 14.495 3.475 14.495 6 15 C8.39228689 15.89305874 10.66943362 16.94896026 13 18 C8.81463922 20.79024052 4.94149735 21.10154594 0 22 C-0.33 26.29 -0.66 30.58 -1 35 C-3.85449645 32.14550355 -5.88798596 29.4229193 -8 26 C-8 25.34 -8 24.68 -8 24 C-8.90492188 24.34224609 -8.90492188 24.34224609 -9.828125 24.69140625 C-10.62734375 24.97886719 -11.4265625 25.26632813 -12.25 25.5625 C-13.03890625 25.85253906 -13.8278125 26.14257812 -14.640625 26.44140625 C-17 27 -17 27 -21 26 C-18.69 23.03 -16.38 20.06 -14 17 C-14.433125 16.30132812 -14.86625 15.60265625 -15.3125 14.8828125 C-15.869375 13.97273437 -16.42625 13.06265625 -17 12.125 C-17.556875 11.22007812 -18.11375 10.31515625 -18.6875 9.3828125 C-20 7 -20 7 -20 5 C-19.09507812 5.30744141 -19.09507812 5.30744141 -18.171875 5.62109375 C-16.97304687 6.02521484 -16.97304687 6.02521484 -15.75 6.4375 C-14.96109375 6.70433594 -14.1721875 6.97117188 -13.359375 7.24609375 C-11.25178012 7.91954708 -9.15246027 8.49150595 -7 9 C-6.51789063 8.3503125 -6.03578125 7.700625 -5.5390625 7.03125 C-4.90742188 6.1959375 -4.27578125 5.360625 -3.625 4.5 C-2.99851563 3.6646875 -2.37203125 2.829375 -1.7265625 1.96875 C-1.15679687 1.3190625 -0.58703125 0.669375 0 0 Z " fill="#F5F6FA" transform="translate(150,215)"/>
<path d="M0 0 C0.66 0 1.32 0 2 0 C2.66 4.29 3.32 8.58 4 13 C8.29 13.66 12.58 14.32 17 15 C15.66144904 17.67710191 14.27941912 17.95129094 11.5625 19.125 C10.75941406 19.47820312 9.95632813 19.83140625 9.12890625 20.1953125 C7 21 7 21 5 21 C5.495 27.93 5.495 27.93 6 35 C4.30729167 33.50260417 2.61458333 32.00520833 0.921875 30.5078125 C-1.04841115 28.9620189 -2.62350225 27.80745869 -5 27 C-7.1328101 27.62064442 -7.1328101 27.62064442 -9.125 28.875 C-12.85430464 31 -12.85430464 31 -15 31 C-13 25 -13 25 -11.4375 22.125 C-10.64634505 19.01315913 -10.64634505 19.01315913 -12.43359375 16.87890625 C-13.71707714 15.43014532 -15.03903413 14.01449244 -16.3984375 12.63671875 C-18 11 -18 11 -18 10 C-13.71 10 -9.42 10 -5 10 C-3.35 6.7 -1.7 3.4 0 0 Z " fill="#F5F7FA" transform="translate(276,167)"/>
<path d="M0 0 C1.98567708 1.52994792 3.97135417 3.05989583 5.95703125 4.58984375 C8.04125052 6.16856248 8.04125052 6.16856248 11 7 C13.79604382 5.79560089 13.79604382 5.79560089 16.6875 4.0625 C18.17830078 3.21365234 18.17830078 3.21365234 19.69921875 2.34765625 C20.45847656 1.90292969 21.21773437 1.45820313 22 1 C21.0420452 3.94228975 20.0888094 6.80368449 18.8125 9.625 C17.86447737 12.39614307 18.03329709 13.28305603 19 16 C20.3867198 17.95826419 20.3867198 17.95826419 22.0625 19.75 C23.031875 20.8225 24.00125 21.895 25 23 C21.04 23 17.08 23 13 23 C11.35 26.63 9.7 30.26 8 34 C7.34 34 6.68 34 6 34 C5.34 29.71 4.68 25.42 4 21 C2.783125 21.020625 1.56625 21.04125 0.3125 21.0625 C-2.91977322 21.06824116 -5.84934741 20.78766315 -9 20 C-6.0094833 16.66442368 -3.06815373 14.84916079 1 13 C0.67 8.71 0.34 4.42 0 0 Z " fill="#F6F7FA" transform="translate(172,186)"/>
</svg>
